<svg width="120" height="15" viewBox="0 0 120 15" fill="none" xmlns="http://www.w3.org/2000/svg">
<g clip-path="url(#clip0_1391_3204)">
<path d="M7.27567 0.0966797C11.35 0.0966797 14.5513 3.10396 14.5513 7.27534C14.5513 11.4467 11.35 14.454 7.27567 14.454C3.2013 14.454 0 11.4467 0 7.27534C0 3.10396 3.2013 0.0966797 7.27567 0.0966797ZM7.27567 3.20097C5.14147 3.20097 3.58933 4.85012 3.58933 7.27534C3.58933 9.70057 5.14147 11.3497 7.27567 11.3497C9.40987 11.3497 10.962 9.70057 10.962 7.27534C10.962 4.85012 9.40987 3.20097 7.27567 3.20097Z" fill="black"/>
<path d="M29.4899 8.8278V0.291016H32.8852V14.2603H29.5869L23.7664 5.82053V14.2603H20.3711V0.291016H23.8634L29.4899 8.8278Z" fill="black"/>
<path d="M49.572 11.156V14.2603H40.1621V0.291016H49.378V3.3953H43.5574V5.82053H48.7959V8.8278H43.5574V11.156H49.572Z" fill="black"/>
<path d="M61.9883 10.0889C63.0554 10.865 64.3165 11.5441 65.8687 11.5441C66.9358 11.5441 67.8088 11.253 67.8088 10.2829C67.8088 9.40987 67.0328 9.11884 65.6746 8.7308C62.7644 7.95473 61.6973 6.69362 61.6973 4.3654C61.6973 1.64915 63.8315 0 66.5477 0C68.1969 0 69.361 0.388036 70.4281 0.970089V4.3654C69.361 3.49232 68.0999 2.91027 66.7417 2.91027C65.6746 2.91027 65.1896 3.39531 65.1896 4.07438C65.1896 4.94746 65.9657 5.23848 67.5178 5.62652C70.4281 6.40259 71.3982 7.76072 71.3982 10.0889C71.3982 13.0962 68.9729 14.4543 65.9657 14.4543C64.4135 14.4543 62.9584 14.0663 62.0853 13.4842L61.9883 10.0889Z" fill="black"/>
<path d="M77.8984 0.291046H81.3907V14.2603H77.8984V0.291046ZM86.2412 0.291046H90.3155L85.8531 7.08167L90.6066 14.2603H86.5322L82.0698 7.3727L86.2412 0.291046Z" fill="black"/>
<path d="M100.016 14.2603H96.5234V0.291016H100.016V14.2603Z" fill="black"/>
<path d="M116.605 8.82783V0.291046H120V14.2603H116.605L110.784 5.82056V14.2603H107.389V0.291046H110.881L116.605 8.82783Z" fill="black"/>
</g>
<defs>
<clipPath id="clip0_1391_3204">
<rect width="120" height="15" fill="white"/>
</clipPath>
</defs>
</svg>
